<?xml version="1.0" encoding="UTF-8"?>
<svg width="118px" height="84px" viewBox="0 0 118 84" version="1.1" xmlns="http://www.w3.org/2000/svg" xmlns:xlink="http://www.w3.org/1999/xlink">
    <title>share-beer</title>
    <g id="Page-1" stroke="none" stroke-width="1" fill="none" fill-rule="evenodd">
        <g id="share-beer">
            <rect id="Rectangle" stroke="#D7402A" stroke-width="6" x="3" y="30" width="26" height="30" rx="8"></rect>
            <path d="M65,11 L65,68 C65,71.5898509 63.5449254,74.8398509 61.1923882,77.1923882 C58.8398509,79.5449254 55.5898509,81 52,81 L29,81 C25.4101491,81 22.1601491,79.5449254 19.8076118,77.1923882 C17.4550746,74.8398509 16,71.5898509 16,68 L16,11 L65,11 Z" id="Rectangle" stroke="#D7402A" stroke-width="6" fill="#FFFFFF"></path>
            <path d="M65,23 L65,68 C65,71.5898509 63.5449254,74.8398509 61.1923882,77.1923882 C58.8398509,79.5449254 55.5898509,81 52,81 L29,81 C25.4101491,81 22.1601491,79.5449254 19.8076118,77.1923882 C17.4550746,74.8398509 16,71.5898509 16,68 L16,23 L65,23 Z" id="Rectangle" stroke="#D7402A" stroke-width="6" fill="#D7402A"></path>
            <circle id="Oval" fill="#FFFFFF" cx="50.5" cy="43.5" r="2.5"></circle>
            <circle id="Oval" fill="#FFFFFF" cx="34.5" cy="35.5" r="2.5"></circle>
            <circle id="Oval" fill="#FFFFFF" cx="22.5" cy="30.5" r="2.5"></circle>
            <circle id="Oval" fill="#FFFFFF" cx="55.5" cy="29.5" r="2.5"></circle>
            <circle id="Oval" fill="#FFFFFF" cx="37.5" cy="72.5" r="2.5"></circle>
            <circle id="Oval" fill="#FFFFFF" cx="25.5" cy="57.5" r="2.5"></circle>
            <circle id="Oval" fill="#FFFFFF" cx="55.5" cy="62.5" r="2.5"></circle>
            <g id="share" transform="translate(75.000000, 0.000000)" fill="#D7402A" fill-rule="nonzero">
                <path d="M42.3994808,14.7906595 L26.274599,0.458029246 C25.7484253,-0.014717344 24.993008,-0.132847716 24.3476198,0.156692784 C23.7022315,0.446233284 23.2882082,1.0890097 23.2914959,1.7963386 L23.2914959,7.54193175 C17.9093687,8.98594425 0,15.7079478 0,41.2110718 C0.00135298739,42.0689333 0.610656097,42.8054468 1.45309913,42.9675492 C2.29554216,43.1296515 3.13467472,42.6718451 3.45430801,41.8757475 C8.76656073,28.594774 19.1223181,25.8232016 23.2897042,25.2445217 L23.2897042,30.4615991 C23.2889632,31.1681604 23.7035833,31.8091684 24.3483295,32.0982472 C24.9930756,32.387326 25.7475164,32.270479 26.274599,31.7999085 L42.3994808,17.4672782 C42.7814811,17.1273151 43,16.6403268 43,16.1289688 C43,15.6176109 42.7814811,15.1306226 42.3994808,14.7906595 Z" id="Path"></path>
            </g>
        </g>
    </g>
</svg>