<svg id="Layer_1" data-name="Layer 1" xmlns="http://www.w3.org/2000/svg" viewBox="0 0 531.01 256.74"><defs><style>.cls-1{fill:#d8402a;}</style></defs><path class="cls-1" d="M201,196.8c0-18.11-14.31-27.25-22.07-27.42,9.65-2.24,21-11.9,21-26.9,0-12.59-6-32.59-39.14-32.59h-50V230.6h50.53C194.47,230.6,201,209.39,201,196.8ZM138.6,130.41h16.72c14.14,0,16.73,8.79,16.73,14.14,0,6-3.1,14.48-16.73,14.48H138.6Zm0,78.8V179.55h17.58c13.46,0,16.56,9.32,16.56,14.83,0,6.73-3.1,14.83-16.73,14.83Z" transform="translate(-40.27 -42.93)"/><polygon class="cls-1" points="361.34 91.1 388.59 91.1 388.59 187.66 416.52 187.66 416.52 91.1 443.94 91.1 443.94 66.96 361.34 66.96 361.34 91.1"/><path class="cls-1" d="M442.91,42.93c-67,0-122.11,51.55-127.86,117H266.71V47.41H40.27V295.2H266.71V184.58h48.52c6.66,64.57,61.38,115.09,127.68,115.09a128.37,128.37,0,0,0,0-256.74ZM242.1,270.59H64.88V72H242.1Zm200.81,4.48A103.77,103.77,0,1,1,546.68,171.3,103.88,103.88,0,0,1,442.91,275.07Z" transform="translate(-40.27 -42.93)"/></svg>